<svg enable-background="new 0 0 150 150" viewBox="0 0 150 150" xmlns="http://www.w3.org/2000/svg"><circle cx="75" cy="75" fill="#d8e9f7" r="75"/><path d="m59.8 43.4c11.6 24.7-26.1 43.9-15.6 68.8 6.7 16 28.3 25.2 44.7 21.1 17.6-4.5 21.2-22.9 19.5-38.3-.8-7.2-3.2-12.5-7.5-18.3-3.9-5.4-9.2-8.7-14.2-12.9-6.9-5.9-16.8-10.2-14.8-20.7 1.4-7.1 6.2-10.6 10.4-16 1.6-2 4.6-6.6.4-6.9-3.9-.2-5.6 6.8-9.9 4.8-3.2-1.5-3.4-10.3-8.8-9.2-5.7 1.2-.2 10.2-3.6 11.4-2.3.8-4.8-3.5-7.4-.6-1.3 1.4.6 2-1.4 3.5-2.6 2-7.6 0-9.7 3.7-1.5 2.6.4 5.2 2.8 6.4 4 2 13.4-3.7 15.1 3.2z" style="fill:#fcf6dc;stroke:#3e4147;stroke-width:1.5;stroke-linecap:round;stroke-linejoin:round;stroke-miterlimit:10"/><path d="m108.4 107.6c-4.5 1.7-9.2 2.9-14 3-11.8.2-22-2.2-26.7-14.1-4.3-10.8-3.4-22.6.4-33.2 1.9-5.3 1.1-9.4 0-14.7-1-4.4-1.1-9.4-4.3-13-3.7-4.1-7.9 1.1-12.4-.6-1.5-.5-2.2-2.1-2.5-3.9-2.5.4-5.6.1-7.1 2.7s.4 5.2 2.8 6.4c4.1 2 13.5-3.6 15.2 3.2 11.6 24.7-26.1 43.9-15.6 68.8 6.7 16 28.3 25.2 44.7 21.1 12.9-3.4 18.2-14.1 19.5-25.7z" fill="#ebdaa7"/><g style="stroke:#3e4147;stroke-width:1.5;stroke-linecap:round;stroke-linejoin:round;stroke-miterlimit:10;fill:none"><path d="m59.8 43.4c11.6 24.7-26.1 43.9-15.6 68.8 6.7 16 28.3 25.2 44.7 21.1 17.6-4.5 21.2-22.9 19.5-38.3-.8-7.2-3.2-12.5-7.5-18.3-3.9-5.4-9.2-8.7-14.2-12.9-6.9-5.9-16.8-10.2-14.8-20.7 1.4-7.1 6.2-10.6 10.4-16 1.6-2 4.6-6.6.4-6.9-3.9-.2-5.6 6.8-9.9 4.8-3.2-1.5-3.4-10.3-8.8-9.2-5.7 1.2-.2 10.2-3.6 11.4-2.3.8-4.8-3.5-7.4-.6-1.3 1.4.6 2-1.4 3.5-2.6 2-7.6 0-9.7 3.7-1.5 2.6.4 5.2 2.8 6.4 4 2 13.4-3.7 15.1 3.2z"/><path d="m60.1 43.7c3.8-1 8.8-1.6 12.6-1.7-3.4 1.7-7.4 2.7-10.3 5.4 2.9.4 6.5-2.7 9.4-1.5-.8 3.2-9.6 4.6-12 7.6 2.3.1 11.2-5.2 12-2.2-3.2 1.7-8.4 3.2-10.2 6.4 2.2.9 5.9-2.2 7.9-3.1 2.2-1 4.6-1.4 6.7-2.3"/><path d="m88.9 87.6c-4.2-6.4-14.5-5.3-19.9-1.2-3.4 2.6-5.9 7.1-1 9.2 3.9 1.7 9.7.6 13.9 1.1 7.6 1 11.2 10.1 3.5 14.2-4.1 2.2-10.6 3-14.9 1.3-3.6-1.5-4-4.3-5-7.5"/><path d="m77.3 77.7c-.8 9.2-4.3 18.3-5.3 27.5-.4 3.6-.5 7.2-1.1 10.7-.1.5-1 3.2-.5 2.1"/><path d="m84.7 78.1c-2.7 12.8-5.5 29.2-8.6 40.2"/></g></svg>